<svg version="1.0" xmlns="http://www.w3.org/2000/svg"
  width="1102.000000pt" height="562.000000pt" viewBox="0 0 1102.000000 562.000000"
  preserveAspectRatio="xMidYMid meet">

  <g transform="translate(0.000000,562.000000) scale(0.100000,-0.100000)">
    <path
      d="M6470 5556 c-6 -6 -10 -18 -10 -28 0 -32 58 -177 113 -283 l55 -105
-573 0 c-574 0 -574 0 -611 22 -36 21 -49 22 -273 23 -230 0 -237 -1 -276 -24
l-40 -23 -1080 1 c-1399 2 -2634 -14 -2763 -34 -186 -30 -339 -109 -477 -249
-110 -111 -156 -197 -239 -446 -150 -454 -206 -876 -206 -1550 1 -701 58
-1190 186 -1576 62 -187 156 -379 232 -472 111 -136 295 -229 549 -278 135
-25 733 -34 2307 -34 1383 0 1501 -1 1518 -17 25 -23 206 -36 387 -29 119 5
151 10 178 26 33 19 53 20 607 20 l573 0 -63 -122 c-74 -148 -113 -261 -98
-286 22 -34 223 -8 302 40 95 58 191 161 273 294 l50 81 952 7 c524 4 1085 11
1247 16 262 8 307 12 405 34 155 36 249 70 367 129 227 115 384 251 549 477
106 145 156 236 187 340 148 492 144 465 150 1235 2 422 0 660 -8 745 -26 288
-103 572 -219 812 -71 146 -245 362 -390 481 -205 170 -358 241 -636 291 -301
56 -373 60 -1015 62 -327 1 -820 2 -1095 3 l-500 2 -49 79 c-97 158 -211 268
-324 310 -63 25 -226 42 -242 26z m-5193 -624 c25 -9 48 -22 50 -28 2 -6 -18
-19 -44 -29 -85 -32 -240 -115 -305 -164 -146 -111 -268 -269 -392 -508 -62
-121 -134 -223 -157 -223 -18 0 -9 100 17 182 14 46 46 126 70 178 24 53 55
140 70 195 14 55 39 125 54 155 69 137 203 235 355 261 72 12 227 1 282 -19z
m5373 -6 c0 -7 -191 -281 -212 -303 -25 -27 -21 -26 -268 -62 -278 -41 -706
-88 -925 -102 -202 -13 -659 -18 -670 -7 -8 8 67 138 184 320 61 95 81 117
104 122 26 5 756 24 1167 29 413 6 620 7 620 3z m3229 -26 c79 -15 196 -68
290 -131 82 -55 214 -179 282 -264 64 -81 172 -250 208 -324 32 -67 36 -87 39
-167 5 -111 -7 -130 -72 -120 -86 14 -118 38 -203 148 -101 130 -134 155 -513
381 -284 169 -518 316 -615 385 -80 56 -73 81 27 92 97 11 499 11 557 0z
m-5566 -17 c2 -5 -39 -105 -93 -223 l-97 -215 -134 -3 c-206 -5 -1130 26
-1297 44 -35 4 -61 13 -74 26 -19 19 -20 28 -14 107 7 88 29 207 40 218 23 23
1656 68 1669 46z m-2110 -136 c23 -36 40 -102 33 -130 -7 -31 -34 -41 -109
-39 -132 4 -478 105 -450 133 15 15 323 55 444 58 59 1 68 -2 82 -22z m5933
-109 c15 -18 42 -65 60 -104 74 -163 222 -636 263 -844 95 -482 94 -1271 -4
-1755 -61 -303 -251 -859 -323 -944 l-27 -32 -260 55 c-499 106 -1038 226
-1282 286 -183 46 -394 116 -765 254 -434 161 -557 193 -804 205 -188 9 -196
13 -357 184 l-117 125 0 755 0 755 140 149 139 150 190 11 c311 20 381 36 771
182 535 200 914 306 1690 471 135 28 322 69 415 89 220 49 236 49 271 8z
m-7078 -132 c23 -8 103 -44 179 -79 76 -36 206 -92 288 -125 215 -86 225 -91
225 -105 0 -6 -43 -101 -95 -209 -196 -406 -248 -649 -247 -1163 0 -373 26
-591 94 -805 39 -121 61 -175 164 -392 46 -97 84 -179 84 -183 0 -8 -125 -65
-445 -203 -198 -85 -284 -117 -323 -120 -50 -4 -54 -3 -87 33 -50 52 -245 451
-294 600 -48 148 -85 311 -107 475 -22 165 -31 737 -15 979 29 436 80 628 275
1026 82 167 112 218 145 248 46 42 88 48 159 23z m9623 -2766 c28 -16 27 -168
-2 -242 -56 -144 -194 -334 -363 -503 -103 -102 -135 -127 -211 -167 -49 -26
-126 -59 -170 -73 l-80 -27 -275 4 c-217 3 -281 7 -304 18 -73 37 -57 50 334
288 113 68 293 176 400 240 280 165 322 197 401 303 70 94 129 146 176 154 21
4 43 8 48 10 18 6 26 5 46 -5z m-10093 -307 c99 -192 162 -283 272 -394 112
-114 224 -190 368 -251 56 -23 101 -47 99 -53 -7 -24 -79 -46 -164 -52 -179
-11 -311 30 -419 130 -73 68 -114 140 -150 268 -15 52 -48 144 -74 204 -68
156 -100 265 -100 333 l1 57 48 -52 c31 -33 73 -100 119 -190z m3538 -258 c24
-36 184 -393 184 -410 0 -19 -206 -20 -725 -5 -767 22 -929 30 -941 46 -14 17
-44 203 -44 268 0 66 16 74 196 87 182 13 859 36 1121 38 l193 1 16 -25z m889
15 c387 -17 877 -67 1248 -126 l168 -27 105 -154 c58 -85 103 -157 99 -161
-16 -17 -1447 -3 -1704 16 l-95 7 -70 110 c-111 174 -196 318 -196 332 0 16
131 17 445 3z m-2795 -140 c24 -24 25 -51 4 -113 -22 -65 -38 -71 -163 -64
-125 7 -371 43 -384 56 -21 21 140 78 338 120 122 26 179 27 205 1z" />
  </g>
</svg>
